<mxfile host="app.diagrams.net" agent="Mozilla/5.0 (Windows NT 10.0; Win64; x64) AppleWebKit/537.36 (KHTML, like Gecko) Chrome/131.0.0.0 Safari/537.36" version="25.0.3">
  <diagram name="Страница — 1" id="Zdu-3fLAP8NWbEPkBfTZ">
    <mxGraphModel dx="2423" dy="1797" grid="1" gridSize="10" guides="1" tooltips="1" connect="1" arrows="1" fold="1" page="1" pageScale="1" pageWidth="827" pageHeight="1169" math="0" shadow="0">
      <root>
        <mxCell id="0" />
        <mxCell id="1" parent="0" />
        <mxCell id="8Cp3q9g_mXeA307Ml8ns-2" style="edgeStyle=orthogonalEdgeStyle;rounded=0;orthogonalLoop=1;jettySize=auto;html=1;entryX=0.5;entryY=0;entryDx=0;entryDy=0;" edge="1" parent="1" source="8Cp3q9g_mXeA307Ml8ns-3" target="8Cp3q9g_mXeA307Ml8ns-7">
          <mxGeometry relative="1" as="geometry" />
        </mxCell>
        <mxCell id="8Cp3q9g_mXeA307Ml8ns-3" value="вход в систему" style="rounded=1;whiteSpace=wrap;html=1;" vertex="1" parent="1">
          <mxGeometry x="400" y="100" width="120" height="40" as="geometry" />
        </mxCell>
        <mxCell id="8Cp3q9g_mXeA307Ml8ns-4" style="edgeStyle=orthogonalEdgeStyle;rounded=0;orthogonalLoop=1;jettySize=auto;html=1;exitX=1;exitY=1;exitDx=0;exitDy=0;" edge="1" parent="1" source="8Cp3q9g_mXeA307Ml8ns-5" target="8Cp3q9g_mXeA307Ml8ns-59">
          <mxGeometry relative="1" as="geometry" />
        </mxCell>
        <mxCell id="8Cp3q9g_mXeA307Ml8ns-5" value="" style="ellipse;whiteSpace=wrap;html=1;aspect=fixed;" vertex="1" parent="1">
          <mxGeometry x="484" y="-40" width="20" height="20" as="geometry" />
        </mxCell>
        <mxCell id="8Cp3q9g_mXeA307Ml8ns-6" style="edgeStyle=orthogonalEdgeStyle;rounded=0;orthogonalLoop=1;jettySize=auto;html=1;exitX=0.5;exitY=1;exitDx=0;exitDy=0;" edge="1" parent="1" source="8Cp3q9g_mXeA307Ml8ns-7" target="8Cp3q9g_mXeA307Ml8ns-54">
          <mxGeometry relative="1" as="geometry" />
        </mxCell>
        <mxCell id="8Cp3q9g_mXeA307Ml8ns-7" value="ввод логина и пароля" style="rounded=1;whiteSpace=wrap;html=1;" vertex="1" parent="1">
          <mxGeometry x="450" y="175" width="120" height="40" as="geometry" />
        </mxCell>
        <mxCell id="8Cp3q9g_mXeA307Ml8ns-8" style="edgeStyle=orthogonalEdgeStyle;rounded=0;orthogonalLoop=1;jettySize=auto;html=1;exitX=0.5;exitY=1;exitDx=0;exitDy=0;" edge="1" parent="1" source="8Cp3q9g_mXeA307Ml8ns-10" target="8Cp3q9g_mXeA307Ml8ns-76">
          <mxGeometry relative="1" as="geometry" />
        </mxCell>
        <mxCell id="8Cp3q9g_mXeA307Ml8ns-9" style="edgeStyle=orthogonalEdgeStyle;rounded=0;orthogonalLoop=1;jettySize=auto;html=1;entryX=0.5;entryY=0;entryDx=0;entryDy=0;" edge="1" parent="1" source="8Cp3q9g_mXeA307Ml8ns-76" target="8Cp3q9g_mXeA307Ml8ns-12">
          <mxGeometry relative="1" as="geometry">
            <Array as="points">
              <mxPoint x="450" y="630" />
              <mxPoint x="450" y="640" />
              <mxPoint x="628" y="640" />
            </Array>
          </mxGeometry>
        </mxCell>
        <mxCell id="8Cp3q9g_mXeA307Ml8ns-10" value="&lt;span style=&quot;font-size: 11px; text-wrap-mode: nowrap; background-color: rgb(255, 255, 255);&quot;&gt;&lt;font style=&quot;vertical-align: inherit;&quot;&gt;&lt;font style=&quot;vertical-align: inherit;&quot;&gt;&lt;font style=&quot;vertical-align: inherit;&quot;&gt;&lt;font style=&quot;vertical-align: inherit;&quot;&gt;переход на страницу&amp;nbsp;&lt;/font&gt;&lt;/font&gt;&lt;/font&gt;&lt;/font&gt;&lt;/span&gt;&lt;div&gt;&lt;span style=&quot;font-size: 11px; text-wrap-mode: nowrap; background-color: rgb(255, 255, 255);&quot;&gt;&lt;font style=&quot;vertical-align: inherit;&quot;&gt;&lt;font style=&quot;vertical-align: inherit;&quot;&gt;для создания конференции&lt;/font&gt;&lt;/font&gt;&lt;/span&gt;&lt;/div&gt;" style="rounded=1;whiteSpace=wrap;html=1;" vertex="1" parent="1">
          <mxGeometry x="515" y="532" width="145" height="48" as="geometry" />
        </mxCell>
        <mxCell id="8Cp3q9g_mXeA307Ml8ns-11" style="edgeStyle=orthogonalEdgeStyle;rounded=0;orthogonalLoop=1;jettySize=auto;html=1;entryX=0.5;entryY=0;entryDx=0;entryDy=0;" edge="1" parent="1" source="8Cp3q9g_mXeA307Ml8ns-12" target="8Cp3q9g_mXeA307Ml8ns-67">
          <mxGeometry relative="1" as="geometry">
            <mxPoint x="605" y="750" as="targetPoint" />
          </mxGeometry>
        </mxCell>
        <mxCell id="8Cp3q9g_mXeA307Ml8ns-12" value="&lt;span style=&quot;font-size: 11px; text-wrap: nowrap; background-color: rgb(255, 255, 255);&quot;&gt;&lt;font style=&quot;vertical-align: inherit;&quot;&gt;&lt;font style=&quot;vertical-align: inherit;&quot;&gt;&lt;font style=&quot;vertical-align: inherit;&quot;&gt;&lt;font style=&quot;vertical-align: inherit;&quot;&gt;ввод данных для создания&amp;nbsp;&lt;/font&gt;&lt;/font&gt;&lt;/font&gt;&lt;/font&gt;&lt;/span&gt;&lt;div&gt;&lt;span style=&quot;font-size: 11px; text-wrap: nowrap; background-color: rgb(255, 255, 255);&quot;&gt;&lt;font style=&quot;vertical-align: inherit;&quot;&gt;&lt;font style=&quot;vertical-align: inherit;&quot;&gt;(дата и время, участники и тд)&lt;/font&gt;&lt;/font&gt;&lt;/span&gt;&lt;/div&gt;" style="rounded=1;whiteSpace=wrap;html=1;" vertex="1" parent="1">
          <mxGeometry x="515" y="652" width="225" height="48" as="geometry" />
        </mxCell>
        <mxCell id="8Cp3q9g_mXeA307Ml8ns-14" style="edgeStyle=orthogonalEdgeStyle;rounded=0;orthogonalLoop=1;jettySize=auto;html=1;exitX=0.25;exitY=1;exitDx=0;exitDy=0;entryX=1;entryY=0.5;entryDx=0;entryDy=0;" edge="1" parent="1" source="8Cp3q9g_mXeA307Ml8ns-15" target="8Cp3q9g_mXeA307Ml8ns-27">
          <mxGeometry relative="1" as="geometry" />
        </mxCell>
        <mxCell id="8Cp3q9g_mXeA307Ml8ns-15" value="регистрация в системе" style="rounded=1;whiteSpace=wrap;html=1;" vertex="1" parent="1">
          <mxGeometry x="180" y="80" width="120" height="40" as="geometry" />
        </mxCell>
        <mxCell id="8Cp3q9g_mXeA307Ml8ns-16" style="edgeStyle=orthogonalEdgeStyle;rounded=0;orthogonalLoop=1;jettySize=auto;html=1;exitX=0;exitY=0.5;exitDx=0;exitDy=0;entryX=0;entryY=0.5;entryDx=0;entryDy=0;" edge="1" parent="1" source="8Cp3q9g_mXeA307Ml8ns-49" target="8Cp3q9g_mXeA307Ml8ns-15">
          <mxGeometry relative="1" as="geometry">
            <mxPoint x="-120" y="280" as="sourcePoint" />
            <mxPoint x="-90" y="53.5" as="targetPoint" />
            <Array as="points">
              <mxPoint x="-120" y="290" />
              <mxPoint x="-120" y="147" />
              <mxPoint x="-89" y="147" />
              <mxPoint x="-89" y="100" />
            </Array>
          </mxGeometry>
        </mxCell>
        <mxCell id="8Cp3q9g_mXeA307Ml8ns-17" value="(нет)" style="edgeLabel;html=1;align=center;verticalAlign=middle;resizable=0;points=[];" vertex="1" connectable="0" parent="8Cp3q9g_mXeA307Ml8ns-16">
          <mxGeometry x="0.0669" y="-3" relative="1" as="geometry">
            <mxPoint x="-53" y="34" as="offset" />
          </mxGeometry>
        </mxCell>
        <mxCell id="8Cp3q9g_mXeA307Ml8ns-18" style="edgeStyle=orthogonalEdgeStyle;rounded=0;orthogonalLoop=1;jettySize=auto;html=1;entryX=0.5;entryY=0;entryDx=0;entryDy=0;" edge="1" parent="1" source="8Cp3q9g_mXeA307Ml8ns-20" target="8Cp3q9g_mXeA307Ml8ns-10">
          <mxGeometry relative="1" as="geometry">
            <Array as="points">
              <mxPoint x="525" y="491" />
              <mxPoint x="575" y="491" />
            </Array>
          </mxGeometry>
        </mxCell>
        <mxCell id="8Cp3q9g_mXeA307Ml8ns-19" style="edgeStyle=orthogonalEdgeStyle;rounded=0;orthogonalLoop=1;jettySize=auto;html=1;exitX=0;exitY=0.5;exitDx=0;exitDy=0;entryX=1;entryY=0.5;entryDx=0;entryDy=0;" edge="1" parent="1" source="8Cp3q9g_mXeA307Ml8ns-20" target="8Cp3q9g_mXeA307Ml8ns-57">
          <mxGeometry relative="1" as="geometry" />
        </mxCell>
        <mxCell id="8Cp3q9g_mXeA307Ml8ns-20" value="вход на главную страницу" style="rounded=1;whiteSpace=wrap;html=1;" vertex="1" parent="1">
          <mxGeometry x="435" y="410" width="130" height="50" as="geometry" />
        </mxCell>
        <mxCell id="8Cp3q9g_mXeA307Ml8ns-22" style="edgeStyle=orthogonalEdgeStyle;rounded=0;orthogonalLoop=1;jettySize=auto;html=1;exitX=0.5;exitY=1;exitDx=0;exitDy=0;entryX=0.5;entryY=1;entryDx=0;entryDy=0;" edge="1" parent="1" source="8Cp3q9g_mXeA307Ml8ns-24" target="8Cp3q9g_mXeA307Ml8ns-79">
          <mxGeometry relative="1" as="geometry" />
        </mxCell>
        <mxCell id="8Cp3q9g_mXeA307Ml8ns-23" style="edgeStyle=orthogonalEdgeStyle;rounded=0;orthogonalLoop=1;jettySize=auto;html=1;exitX=1;exitY=0.25;exitDx=0;exitDy=0;entryX=0.5;entryY=1;entryDx=0;entryDy=0;" edge="1" parent="1" source="8Cp3q9g_mXeA307Ml8ns-24" target="8Cp3q9g_mXeA307Ml8ns-104">
          <mxGeometry relative="1" as="geometry">
            <Array as="points">
              <mxPoint x="990" y="1093" />
            </Array>
            <mxPoint x="990" y="320" as="targetPoint" />
          </mxGeometry>
        </mxCell>
        <mxCell id="8Cp3q9g_mXeA307Ml8ns-24" value="&lt;font style=&quot;vertical-align: inherit;&quot;&gt;&lt;font style=&quot;vertical-align: inherit;&quot;&gt;переход на страницу с конференцией&lt;/font&gt;&lt;/font&gt;" style="rounded=1;whiteSpace=wrap;html=1;" vertex="1" parent="1">
          <mxGeometry x="560" y="1080" width="140" height="50" as="geometry" />
        </mxCell>
        <mxCell id="8Cp3q9g_mXeA307Ml8ns-26" style="edgeStyle=orthogonalEdgeStyle;rounded=0;orthogonalLoop=1;jettySize=auto;html=1;exitX=0;exitY=0.5;exitDx=0;exitDy=0;entryX=0.5;entryY=0;entryDx=0;entryDy=0;" edge="1" parent="1" source="8Cp3q9g_mXeA307Ml8ns-27" target="8Cp3q9g_mXeA307Ml8ns-49">
          <mxGeometry relative="1" as="geometry" />
        </mxCell>
        <mxCell id="8Cp3q9g_mXeA307Ml8ns-27" value="заполнение анкеты регистрации" style="rounded=1;whiteSpace=wrap;html=1;" vertex="1" parent="1">
          <mxGeometry x="90" y="150" width="130" height="50" as="geometry" />
        </mxCell>
        <mxCell id="8Cp3q9g_mXeA307Ml8ns-101" style="edgeStyle=orthogonalEdgeStyle;rounded=0;orthogonalLoop=1;jettySize=auto;html=1;exitX=0.5;exitY=0;exitDx=0;exitDy=0;entryX=0.5;entryY=1;entryDx=0;entryDy=0;" edge="1" parent="1" source="8Cp3q9g_mXeA307Ml8ns-29" target="8Cp3q9g_mXeA307Ml8ns-100">
          <mxGeometry relative="1" as="geometry" />
        </mxCell>
        <mxCell id="8Cp3q9g_mXeA307Ml8ns-29" value="&lt;span style=&quot;font-size: 11px; text-wrap-mode: nowrap; background-color: rgb(255, 255, 255);&quot;&gt;&lt;font style=&quot;vertical-align: inherit;&quot;&gt;&lt;font style=&quot;vertical-align: inherit;&quot;&gt;&lt;font style=&quot;vertical-align: inherit;&quot;&gt;&lt;font style=&quot;vertical-align: inherit;&quot;&gt;добавление участника&amp;nbsp;&lt;/font&gt;&lt;/font&gt;&lt;/font&gt;&lt;/font&gt;&lt;/span&gt;&lt;div&gt;&lt;span style=&quot;font-size: 11px; text-wrap-mode: nowrap; background-color: rgb(255, 255, 255);&quot;&gt;&lt;font style=&quot;vertical-align: inherit;&quot;&gt;&lt;font style=&quot;vertical-align: inherit;&quot;&gt;в конференцию&lt;/font&gt;&lt;/font&gt;&lt;/span&gt;&lt;/div&gt;" style="rounded=1;whiteSpace=wrap;html=1;" vertex="1" parent="1">
          <mxGeometry x="1105" y="670" width="140" height="50" as="geometry" />
        </mxCell>
        <mxCell id="8Cp3q9g_mXeA307Ml8ns-44" style="edgeStyle=orthogonalEdgeStyle;rounded=0;orthogonalLoop=1;jettySize=auto;html=1;exitX=0;exitY=0.5;exitDx=0;exitDy=0;entryX=1;entryY=0.5;entryDx=0;entryDy=0;" edge="1" parent="1" source="8Cp3q9g_mXeA307Ml8ns-104" target="8Cp3q9g_mXeA307Ml8ns-20">
          <mxGeometry relative="1" as="geometry">
            <Array as="points">
              <mxPoint x="800" y="435" />
              <mxPoint x="800" y="435" />
            </Array>
            <mxPoint x="720" y="165" as="sourcePoint" />
          </mxGeometry>
        </mxCell>
        <mxCell id="8Cp3q9g_mXeA307Ml8ns-47" style="edgeStyle=orthogonalEdgeStyle;rounded=0;orthogonalLoop=1;jettySize=auto;html=1;exitX=1;exitY=0.5;exitDx=0;exitDy=0;" edge="1" parent="1" source="8Cp3q9g_mXeA307Ml8ns-49" target="8Cp3q9g_mXeA307Ml8ns-62">
          <mxGeometry relative="1" as="geometry" />
        </mxCell>
        <mxCell id="8Cp3q9g_mXeA307Ml8ns-48" value="(да)" style="edgeLabel;html=1;align=center;verticalAlign=middle;resizable=0;points=[];" vertex="1" connectable="0" parent="8Cp3q9g_mXeA307Ml8ns-47">
          <mxGeometry x="-0.0957" y="4" relative="1" as="geometry">
            <mxPoint as="offset" />
          </mxGeometry>
        </mxCell>
        <mxCell id="8Cp3q9g_mXeA307Ml8ns-49" value="анкета заполнена правильно?" style="rhombus;whiteSpace=wrap;html=1;" vertex="1" parent="1">
          <mxGeometry x="-100" y="240" width="110" height="100" as="geometry" />
        </mxCell>
        <mxCell id="8Cp3q9g_mXeA307Ml8ns-50" style="edgeStyle=orthogonalEdgeStyle;rounded=0;orthogonalLoop=1;jettySize=auto;html=1;exitX=1;exitY=0.5;exitDx=0;exitDy=0;entryX=1;entryY=0.5;entryDx=0;entryDy=0;" edge="1" parent="1" source="8Cp3q9g_mXeA307Ml8ns-54" target="8Cp3q9g_mXeA307Ml8ns-7">
          <mxGeometry relative="1" as="geometry" />
        </mxCell>
        <mxCell id="8Cp3q9g_mXeA307Ml8ns-51" value="(нет)" style="edgeLabel;html=1;align=center;verticalAlign=middle;resizable=0;points=[];" vertex="1" connectable="0" parent="8Cp3q9g_mXeA307Ml8ns-50">
          <mxGeometry x="0.0971" y="-2" relative="1" as="geometry">
            <mxPoint as="offset" />
          </mxGeometry>
        </mxCell>
        <mxCell id="8Cp3q9g_mXeA307Ml8ns-52" style="edgeStyle=orthogonalEdgeStyle;rounded=0;orthogonalLoop=1;jettySize=auto;html=1;exitX=0.5;exitY=1;exitDx=0;exitDy=0;" edge="1" parent="1" source="8Cp3q9g_mXeA307Ml8ns-54" target="8Cp3q9g_mXeA307Ml8ns-62">
          <mxGeometry relative="1" as="geometry" />
        </mxCell>
        <mxCell id="8Cp3q9g_mXeA307Ml8ns-53" value="(да)" style="edgeLabel;html=1;align=center;verticalAlign=middle;resizable=0;points=[];" vertex="1" connectable="0" parent="8Cp3q9g_mXeA307Ml8ns-52">
          <mxGeometry x="-0.0222" y="2" relative="1" as="geometry">
            <mxPoint y="-10" as="offset" />
          </mxGeometry>
        </mxCell>
        <mxCell id="8Cp3q9g_mXeA307Ml8ns-54" value="логин и пароль правильные?" style="rhombus;whiteSpace=wrap;html=1;" vertex="1" parent="1">
          <mxGeometry x="450" y="230" width="110" height="100" as="geometry" />
        </mxCell>
        <mxCell id="8Cp3q9g_mXeA307Ml8ns-55" style="edgeStyle=orthogonalEdgeStyle;rounded=0;orthogonalLoop=1;jettySize=auto;html=1;exitX=0;exitY=0.5;exitDx=0;exitDy=0;" edge="1" parent="1" source="8Cp3q9g_mXeA307Ml8ns-57">
          <mxGeometry relative="1" as="geometry">
            <mxPoint x="160" y="415" as="targetPoint" />
          </mxGeometry>
        </mxCell>
        <mxCell id="8Cp3q9g_mXeA307Ml8ns-56" value="" style="edgeStyle=orthogonalEdgeStyle;rounded=0;orthogonalLoop=1;jettySize=auto;html=1;" edge="1" parent="1" source="8Cp3q9g_mXeA307Ml8ns-57" target="8Cp3q9g_mXeA307Ml8ns-58">
          <mxGeometry relative="1" as="geometry" />
        </mxCell>
        <mxCell id="8Cp3q9g_mXeA307Ml8ns-57" value="выход из системы" style="rounded=1;whiteSpace=wrap;html=1;" vertex="1" parent="1">
          <mxGeometry x="260" y="390" width="110" height="50" as="geometry" />
        </mxCell>
        <mxCell id="8Cp3q9g_mXeA307Ml8ns-58" value="" style="ellipse;html=1;shape=endState;fillColor=#000000;strokeColor=#ff0000;" vertex="1" parent="1">
          <mxGeometry x="130" y="400" width="30" height="30" as="geometry" />
        </mxCell>
        <mxCell id="8Cp3q9g_mXeA307Ml8ns-59" value="" style="html=1;points=[[0,0,0,0,5],[0,1,0,0,-5],[1,0,0,0,5],[1,1,0,0,-5]];perimeter=orthogonalPerimeter;outlineConnect=0;targetShapes=umlLifeline;portConstraint=eastwest;newEdgeStyle={&quot;curved&quot;:0,&quot;rounded&quot;:0};rotation=90;" vertex="1" parent="1">
          <mxGeometry x="460" y="-240" width="10" height="530" as="geometry" />
        </mxCell>
        <mxCell id="8Cp3q9g_mXeA307Ml8ns-60" value="" style="endArrow=classic;html=1;rounded=0;exitX=1;exitY=0.642;exitDx=0;exitDy=0;exitPerimeter=0;entryX=1;entryY=0.5;entryDx=0;entryDy=0;" edge="1" parent="1" source="8Cp3q9g_mXeA307Ml8ns-59" target="8Cp3q9g_mXeA307Ml8ns-15">
          <mxGeometry width="50" height="50" relative="1" as="geometry">
            <mxPoint x="540" y="260" as="sourcePoint" />
            <mxPoint x="590" y="210" as="targetPoint" />
          </mxGeometry>
        </mxCell>
        <mxCell id="8Cp3q9g_mXeA307Ml8ns-61" value="" style="endArrow=classic;html=1;rounded=0;entryX=0.567;entryY=-0.05;entryDx=0;entryDy=0;entryPerimeter=0;" edge="1" parent="1" source="8Cp3q9g_mXeA307Ml8ns-59" target="8Cp3q9g_mXeA307Ml8ns-3">
          <mxGeometry width="50" height="50" relative="1" as="geometry">
            <mxPoint x="400" y="40" as="sourcePoint" />
            <mxPoint x="310" y="110" as="targetPoint" />
          </mxGeometry>
        </mxCell>
        <mxCell id="8Cp3q9g_mXeA307Ml8ns-62" value="" style="html=1;points=[[0,0,0,0,5],[0,1,0,0,-5],[1,0,0,0,5],[1,1,0,0,-5]];perimeter=orthogonalPerimeter;outlineConnect=0;targetShapes=umlLifeline;portConstraint=eastwest;newEdgeStyle={&quot;curved&quot;:0,&quot;rounded&quot;:0};rotation=90;" vertex="1" parent="1">
          <mxGeometry x="250" y="100" width="10" height="530" as="geometry" />
        </mxCell>
        <mxCell id="8Cp3q9g_mXeA307Ml8ns-63" value="" style="endArrow=classic;html=1;rounded=0;entryX=0.615;entryY=0;entryDx=0;entryDy=0;entryPerimeter=0;exitX=1;exitY=0.132;exitDx=0;exitDy=0;exitPerimeter=0;" edge="1" parent="1" source="8Cp3q9g_mXeA307Ml8ns-62" target="8Cp3q9g_mXeA307Ml8ns-20">
          <mxGeometry width="50" height="50" relative="1" as="geometry">
            <mxPoint x="478" y="40" as="sourcePoint" />
            <mxPoint x="478" y="108" as="targetPoint" />
          </mxGeometry>
        </mxCell>
        <mxCell id="8Cp3q9g_mXeA307Ml8ns-64" style="edgeStyle=orthogonalEdgeStyle;rounded=0;orthogonalLoop=1;jettySize=auto;html=1;exitX=0.5;exitY=1;exitDx=0;exitDy=0;" edge="1" parent="1" source="8Cp3q9g_mXeA307Ml8ns-67" target="8Cp3q9g_mXeA307Ml8ns-77">
          <mxGeometry relative="1" as="geometry" />
        </mxCell>
        <mxCell id="8Cp3q9g_mXeA307Ml8ns-65" value="(да)" style="edgeLabel;html=1;align=center;verticalAlign=middle;resizable=0;points=[];" vertex="1" connectable="0" parent="8Cp3q9g_mXeA307Ml8ns-64">
          <mxGeometry x="0.0914" relative="1" as="geometry">
            <mxPoint as="offset" />
          </mxGeometry>
        </mxCell>
        <mxCell id="8Cp3q9g_mXeA307Ml8ns-66" style="edgeStyle=orthogonalEdgeStyle;rounded=0;orthogonalLoop=1;jettySize=auto;html=1;" edge="1" parent="1" source="8Cp3q9g_mXeA307Ml8ns-77" target="8Cp3q9g_mXeA307Ml8ns-24">
          <mxGeometry relative="1" as="geometry">
            <Array as="points">
              <mxPoint x="630" y="1005" />
            </Array>
          </mxGeometry>
        </mxCell>
        <mxCell id="8Cp3q9g_mXeA307Ml8ns-67" value="&lt;font style=&quot;font-size: 11px; text-wrap-mode: nowrap; vertical-align: inherit;&quot;&gt;&lt;font style=&quot;vertical-align: inherit;&quot;&gt;&lt;font style=&quot;vertical-align: inherit;&quot;&gt;&lt;font style=&quot;vertical-align: inherit;&quot;&gt;&lt;font style=&quot;vertical-align: inherit;&quot;&gt;&lt;font style=&quot;vertical-align: inherit;&quot;&gt;&lt;font style=&quot;vertical-align: inherit;&quot;&gt;все обязательны&lt;/font&gt;&lt;/font&gt;&lt;/font&gt;&lt;/font&gt;&lt;/font&gt;&lt;/font&gt;&lt;/font&gt;&lt;div&gt;&lt;font style=&quot;font-size: 11px; text-wrap-mode: nowrap; vertical-align: inherit;&quot;&gt;&lt;font style=&quot;vertical-align: inherit;&quot;&gt;&lt;font style=&quot;vertical-align: inherit;&quot;&gt;&lt;font style=&quot;vertical-align: inherit;&quot;&gt;&lt;font style=&quot;vertical-align: inherit;&quot;&gt;&amp;nbsp;поля заполнены?&lt;/font&gt;&lt;/font&gt;&lt;/font&gt;&lt;/font&gt;&lt;/font&gt;&lt;/div&gt;" style="rhombus;whiteSpace=wrap;html=1;" vertex="1" parent="1">
          <mxGeometry x="535" y="830" width="140" height="120" as="geometry" />
        </mxCell>
        <mxCell id="8Cp3q9g_mXeA307Ml8ns-68" style="edgeStyle=orthogonalEdgeStyle;rounded=0;orthogonalLoop=1;jettySize=auto;html=1;exitX=1;exitY=0.5;exitDx=0;exitDy=0;entryX=1;entryY=0.5;entryDx=0;entryDy=0;" edge="1" parent="1" source="8Cp3q9g_mXeA307Ml8ns-67" target="8Cp3q9g_mXeA307Ml8ns-12">
          <mxGeometry relative="1" as="geometry">
            <Array as="points">
              <mxPoint x="760" y="890" />
              <mxPoint x="760" y="676" />
            </Array>
          </mxGeometry>
        </mxCell>
        <mxCell id="8Cp3q9g_mXeA307Ml8ns-69" value="(нет)" style="edgeLabel;html=1;align=center;verticalAlign=middle;resizable=0;points=[];" vertex="1" connectable="0" parent="8Cp3q9g_mXeA307Ml8ns-68">
          <mxGeometry x="0.0991" y="-3" relative="1" as="geometry">
            <mxPoint as="offset" />
          </mxGeometry>
        </mxCell>
        <mxCell id="8Cp3q9g_mXeA307Ml8ns-73" style="edgeStyle=orthogonalEdgeStyle;rounded=0;orthogonalLoop=1;jettySize=auto;html=1;exitX=0.5;exitY=1;exitDx=0;exitDy=0;entryX=0;entryY=0;entryDx=0;entryDy=5;entryPerimeter=0;" edge="1" parent="1" source="8Cp3q9g_mXeA307Ml8ns-87" target="8Cp3q9g_mXeA307Ml8ns-77">
          <mxGeometry relative="1" as="geometry">
            <mxPoint x="870" y="990" as="targetPoint" />
          </mxGeometry>
        </mxCell>
        <mxCell id="8Cp3q9g_mXeA307Ml8ns-89" value="&lt;font style=&quot;vertical-align: inherit;&quot;&gt;&lt;font style=&quot;vertical-align: inherit;&quot;&gt;(да)&lt;/font&gt;&lt;/font&gt;" style="edgeLabel;html=1;align=center;verticalAlign=middle;resizable=0;points=[];" vertex="1" connectable="0" parent="8Cp3q9g_mXeA307Ml8ns-73">
          <mxGeometry x="-0.4167" y="-2" relative="1" as="geometry">
            <mxPoint as="offset" />
          </mxGeometry>
        </mxCell>
        <mxCell id="8Cp3q9g_mXeA307Ml8ns-86" style="edgeStyle=orthogonalEdgeStyle;rounded=0;orthogonalLoop=1;jettySize=auto;html=1;exitX=0.5;exitY=1;exitDx=0;exitDy=0;" edge="1" parent="1" source="8Cp3q9g_mXeA307Ml8ns-74" target="8Cp3q9g_mXeA307Ml8ns-85">
          <mxGeometry relative="1" as="geometry" />
        </mxCell>
        <mxCell id="8Cp3q9g_mXeA307Ml8ns-74" value="&lt;span style=&quot;font-size: 11px; text-wrap: nowrap; background-color: rgb(255, 255, 255);&quot;&gt;&lt;font style=&quot;vertical-align: inherit;&quot;&gt;&lt;font style=&quot;vertical-align: inherit;&quot;&gt;&lt;font style=&quot;vertical-align: inherit;&quot;&gt;&lt;font style=&quot;vertical-align: inherit;&quot;&gt;нажмите на вход&amp;nbsp;&lt;/font&gt;&lt;/font&gt;&lt;/font&gt;&lt;/font&gt;&lt;/span&gt;&lt;div&gt;&lt;span style=&quot;font-size: 11px; text-wrap: nowrap; background-color: rgb(255, 255, 255);&quot;&gt;&lt;font style=&quot;vertical-align: inherit;&quot;&gt;&lt;font style=&quot;vertical-align: inherit;&quot;&gt;в конференцию&lt;/font&gt;&lt;/font&gt;&lt;/span&gt;&lt;/div&gt;" style="rounded=1;whiteSpace=wrap;html=1;" vertex="1" parent="1">
          <mxGeometry x="820" y="662.5" width="150" height="48" as="geometry" />
        </mxCell>
        <mxCell id="8Cp3q9g_mXeA307Ml8ns-75" style="edgeStyle=orthogonalEdgeStyle;rounded=0;orthogonalLoop=1;jettySize=auto;html=1;curved=0;exitX=0;exitY=0;exitDx=0;exitDy=5;exitPerimeter=0;entryX=0.5;entryY=0;entryDx=0;entryDy=0;" edge="1" parent="1" source="8Cp3q9g_mXeA307Ml8ns-76" target="8Cp3q9g_mXeA307Ml8ns-74">
          <mxGeometry relative="1" as="geometry" />
        </mxCell>
        <mxCell id="8Cp3q9g_mXeA307Ml8ns-76" value="" style="html=1;points=[[0,0,0,0,5],[0,1,0,0,-5],[1,0,0,0,5],[1,1,0,0,-5]];perimeter=orthogonalPerimeter;outlineConnect=0;targetShapes=umlLifeline;portConstraint=eastwest;newEdgeStyle={&quot;curved&quot;:0,&quot;rounded&quot;:0};rotation=90;" vertex="1" parent="1">
          <mxGeometry x="625" y="470" width="10" height="290" as="geometry" />
        </mxCell>
        <mxCell id="8Cp3q9g_mXeA307Ml8ns-77" value="" style="html=1;points=[[0,0,0,0,5],[0,1,0,0,-5],[1,0,0,0,5],[1,1,0,0,-5]];perimeter=orthogonalPerimeter;outlineConnect=0;targetShapes=umlLifeline;portConstraint=eastwest;newEdgeStyle={&quot;curved&quot;:0,&quot;rounded&quot;:0};rotation=90;" vertex="1" parent="1">
          <mxGeometry x="750" y="860" width="10" height="290" as="geometry" />
        </mxCell>
        <mxCell id="8Cp3q9g_mXeA307Ml8ns-78" style="edgeStyle=orthogonalEdgeStyle;rounded=0;orthogonalLoop=1;jettySize=auto;html=1;exitX=0;exitY=0.5;exitDx=0;exitDy=0;entryX=0.5;entryY=1;entryDx=0;entryDy=0;" edge="1" parent="1" source="8Cp3q9g_mXeA307Ml8ns-79" target="8Cp3q9g_mXeA307Ml8ns-93">
          <mxGeometry relative="1" as="geometry" />
        </mxCell>
        <mxCell id="8Cp3q9g_mXeA307Ml8ns-79" value="&lt;span style=&quot;font-size: 11px; text-wrap-mode: nowrap; background-color: rgb(255, 255, 255);&quot;&gt;&lt;font style=&quot;vertical-align: inherit;&quot;&gt;&lt;font style=&quot;vertical-align: inherit;&quot;&gt;&lt;font style=&quot;vertical-align: inherit;&quot;&gt;&lt;font style=&quot;vertical-align: inherit;&quot;&gt;нажатие на кнопку&amp;nbsp;&lt;/font&gt;&lt;/font&gt;&lt;/font&gt;&lt;/font&gt;&lt;/span&gt;&lt;div&gt;&lt;span style=&quot;font-size: 11px; text-wrap-mode: nowrap; background-color: rgb(255, 255, 255);&quot;&gt;&lt;font style=&quot;vertical-align: inherit;&quot;&gt;&lt;font style=&quot;vertical-align: inherit;&quot;&gt;пригласить участников&lt;/font&gt;&lt;/font&gt;&lt;/span&gt;&lt;/div&gt;" style="rounded=1;whiteSpace=wrap;html=1;" vertex="1" parent="1">
          <mxGeometry x="1280" y="1030" width="140" height="50" as="geometry" />
        </mxCell>
        <mxCell id="8Cp3q9g_mXeA307Ml8ns-85" value="&lt;span style=&quot;font-size: 11px; text-wrap-mode: nowrap; background-color: rgb(255, 255, 255);&quot;&gt;&lt;font style=&quot;vertical-align: inherit;&quot;&gt;&lt;font style=&quot;vertical-align: inherit;&quot;&gt;&lt;font style=&quot;vertical-align: inherit;&quot;&gt;&lt;font style=&quot;vertical-align: inherit;&quot;&gt;ввод идентификатора&amp;nbsp;&lt;/font&gt;&lt;/font&gt;&lt;/font&gt;&lt;/font&gt;&lt;/span&gt;&lt;div&gt;&lt;span style=&quot;font-size: 11px; text-wrap-mode: nowrap; background-color: rgb(255, 255, 255);&quot;&gt;&lt;font style=&quot;vertical-align: inherit;&quot;&gt;&lt;font style=&quot;vertical-align: inherit;&quot;&gt;конференции&lt;/font&gt;&lt;/font&gt;&lt;/span&gt;&lt;/div&gt;" style="rounded=1;whiteSpace=wrap;html=1;" vertex="1" parent="1">
          <mxGeometry x="820" y="760" width="150" height="48" as="geometry" />
        </mxCell>
        <mxCell id="8Cp3q9g_mXeA307Ml8ns-88" value="" style="edgeStyle=orthogonalEdgeStyle;rounded=0;orthogonalLoop=1;jettySize=auto;html=1;exitX=0.5;exitY=1;exitDx=0;exitDy=0;entryX=0.5;entryY=0;entryDx=0;entryDy=0;" edge="1" parent="1" source="8Cp3q9g_mXeA307Ml8ns-85" target="8Cp3q9g_mXeA307Ml8ns-87">
          <mxGeometry relative="1" as="geometry">
            <mxPoint x="895" y="1000" as="targetPoint" />
            <mxPoint x="895" y="808" as="sourcePoint" />
          </mxGeometry>
        </mxCell>
        <mxCell id="8Cp3q9g_mXeA307Ml8ns-91" style="edgeStyle=orthogonalEdgeStyle;rounded=0;orthogonalLoop=1;jettySize=auto;html=1;exitX=0;exitY=0.5;exitDx=0;exitDy=0;entryX=0;entryY=0.5;entryDx=0;entryDy=0;" edge="1" parent="1" source="8Cp3q9g_mXeA307Ml8ns-87" target="8Cp3q9g_mXeA307Ml8ns-85">
          <mxGeometry relative="1" as="geometry" />
        </mxCell>
        <mxCell id="8Cp3q9g_mXeA307Ml8ns-92" value="&lt;font style=&quot;vertical-align: inherit;&quot;&gt;&lt;font style=&quot;vertical-align: inherit;&quot;&gt;(нет)&lt;/font&gt;&lt;/font&gt;" style="edgeLabel;html=1;align=center;verticalAlign=middle;resizable=0;points=[];" vertex="1" connectable="0" parent="8Cp3q9g_mXeA307Ml8ns-91">
          <mxGeometry x="0.2815" y="-1" relative="1" as="geometry">
            <mxPoint as="offset" />
          </mxGeometry>
        </mxCell>
        <mxCell id="8Cp3q9g_mXeA307Ml8ns-87" value="&lt;font style=&quot;vertical-align: inherit;&quot;&gt;&lt;font style=&quot;vertical-align: inherit;&quot;&gt;существует конференция с таким идентификатором?&lt;/font&gt;&lt;/font&gt;" style="rhombus;whiteSpace=wrap;html=1;" vertex="1" parent="1">
          <mxGeometry x="825" y="840" width="140" height="120" as="geometry" />
        </mxCell>
        <mxCell id="8Cp3q9g_mXeA307Ml8ns-94" style="edgeStyle=orthogonalEdgeStyle;rounded=0;orthogonalLoop=1;jettySize=auto;html=1;exitX=0.5;exitY=0;exitDx=0;exitDy=0;entryX=0.5;entryY=1;entryDx=0;entryDy=0;" edge="1" parent="1" source="8Cp3q9g_mXeA307Ml8ns-95" target="8Cp3q9g_mXeA307Ml8ns-29">
          <mxGeometry relative="1" as="geometry" />
        </mxCell>
        <mxCell id="8Cp3q9g_mXeA307Ml8ns-99" value="&lt;font style=&quot;vertical-align: inherit;&quot;&gt;&lt;font style=&quot;vertical-align: inherit;&quot;&gt;(да)&lt;/font&gt;&lt;/font&gt;" style="edgeLabel;html=1;align=center;verticalAlign=middle;resizable=0;points=[];" vertex="1" connectable="0" parent="8Cp3q9g_mXeA307Ml8ns-94">
          <mxGeometry x="-0.5057" y="-2" relative="1" as="geometry">
            <mxPoint as="offset" />
          </mxGeometry>
        </mxCell>
        <mxCell id="8Cp3q9g_mXeA307Ml8ns-93" value="&lt;span style=&quot;font-size: 11px; text-wrap: nowrap; background-color: rgb(255, 255, 255);&quot;&gt;&lt;font style=&quot;vertical-align: inherit;&quot;&gt;&lt;font style=&quot;vertical-align: inherit;&quot;&gt;ввести данные участников&lt;/font&gt;&lt;/font&gt;&lt;/span&gt;" style="rounded=1;whiteSpace=wrap;html=1;" vertex="1" parent="1">
          <mxGeometry x="1105" y="980" width="140" height="50" as="geometry" />
        </mxCell>
        <mxCell id="8Cp3q9g_mXeA307Ml8ns-96" value="" style="edgeStyle=orthogonalEdgeStyle;rounded=0;orthogonalLoop=1;jettySize=auto;html=1;exitX=0.5;exitY=0;exitDx=0;exitDy=0;entryX=0.5;entryY=1;entryDx=0;entryDy=0;" edge="1" parent="1" source="8Cp3q9g_mXeA307Ml8ns-93" target="8Cp3q9g_mXeA307Ml8ns-95">
          <mxGeometry relative="1" as="geometry">
            <mxPoint x="1175" y="980" as="sourcePoint" />
            <mxPoint x="1160" y="730" as="targetPoint" />
          </mxGeometry>
        </mxCell>
        <mxCell id="8Cp3q9g_mXeA307Ml8ns-97" style="edgeStyle=orthogonalEdgeStyle;rounded=0;orthogonalLoop=1;jettySize=auto;html=1;exitX=0;exitY=0.5;exitDx=0;exitDy=0;entryX=0;entryY=0.5;entryDx=0;entryDy=0;" edge="1" parent="1" source="8Cp3q9g_mXeA307Ml8ns-95" target="8Cp3q9g_mXeA307Ml8ns-93">
          <mxGeometry relative="1" as="geometry">
            <Array as="points">
              <mxPoint x="1090" y="870" />
              <mxPoint x="1090" y="1005" />
            </Array>
          </mxGeometry>
        </mxCell>
        <mxCell id="8Cp3q9g_mXeA307Ml8ns-98" value="&lt;font style=&quot;vertical-align: inherit;&quot;&gt;&lt;font style=&quot;vertical-align: inherit;&quot;&gt;(нет)&lt;/font&gt;&lt;/font&gt;" style="edgeLabel;html=1;align=center;verticalAlign=middle;resizable=0;points=[];" vertex="1" connectable="0" parent="8Cp3q9g_mXeA307Ml8ns-97">
          <mxGeometry x="0.0678" y="2" relative="1" as="geometry">
            <mxPoint as="offset" />
          </mxGeometry>
        </mxCell>
        <mxCell id="8Cp3q9g_mXeA307Ml8ns-95" value="&lt;font style=&quot;vertical-align: inherit;&quot;&gt;&lt;font style=&quot;vertical-align: inherit;&quot;&gt;участник найден?&lt;/font&gt;&lt;/font&gt;" style="rhombus;whiteSpace=wrap;html=1;" vertex="1" parent="1">
          <mxGeometry x="1120" y="820" width="110" height="100" as="geometry" />
        </mxCell>
        <mxCell id="8Cp3q9g_mXeA307Ml8ns-105" style="edgeStyle=orthogonalEdgeStyle;rounded=0;orthogonalLoop=1;jettySize=auto;html=1;exitX=0;exitY=0.5;exitDx=0;exitDy=0;entryX=1;entryY=0.5;entryDx=0;entryDy=0;" edge="1" parent="1" source="8Cp3q9g_mXeA307Ml8ns-100" target="8Cp3q9g_mXeA307Ml8ns-104">
          <mxGeometry relative="1" as="geometry" />
        </mxCell>
        <mxCell id="8Cp3q9g_mXeA307Ml8ns-106" style="edgeStyle=orthogonalEdgeStyle;rounded=0;orthogonalLoop=1;jettySize=auto;html=1;exitX=0.5;exitY=0;exitDx=0;exitDy=0;" edge="1" parent="1" source="8Cp3q9g_mXeA307Ml8ns-100" target="8Cp3q9g_mXeA307Ml8ns-102">
          <mxGeometry relative="1" as="geometry" />
        </mxCell>
        <mxCell id="8Cp3q9g_mXeA307Ml8ns-107" style="edgeStyle=orthogonalEdgeStyle;rounded=0;orthogonalLoop=1;jettySize=auto;html=1;exitX=1;exitY=0.5;exitDx=0;exitDy=0;entryX=0;entryY=0.5;entryDx=0;entryDy=0;" edge="1" parent="1" source="8Cp3q9g_mXeA307Ml8ns-100" target="8Cp3q9g_mXeA307Ml8ns-103">
          <mxGeometry relative="1" as="geometry" />
        </mxCell>
        <mxCell id="8Cp3q9g_mXeA307Ml8ns-100" value="&lt;span style=&quot;font-size: 11px; text-wrap-mode: nowrap; background-color: rgb(255, 255, 255);&quot;&gt;&lt;font style=&quot;vertical-align: inherit;&quot;&gt;&lt;font style=&quot;vertical-align: inherit;&quot;&gt;&lt;font style=&quot;vertical-align: inherit;&quot;&gt;&lt;font style=&quot;vertical-align: inherit;&quot;&gt;нажатие на кнопку&amp;nbsp;&lt;/font&gt;&lt;/font&gt;&lt;/font&gt;&lt;/font&gt;&lt;/span&gt;&lt;div&gt;&lt;span style=&quot;font-size: 11px; text-wrap-mode: nowrap; background-color: rgb(255, 255, 255);&quot;&gt;&lt;font style=&quot;vertical-align: inherit;&quot;&gt;&lt;font style=&quot;vertical-align: inherit;&quot;&gt;&lt;font style=&quot;vertical-align: inherit;&quot;&gt;&lt;font style=&quot;vertical-align: inherit;&quot;&gt;включить/выключить&amp;nbsp;&lt;/font&gt;&lt;/font&gt;&lt;/font&gt;&lt;/font&gt;&lt;/span&gt;&lt;/div&gt;&lt;div&gt;&lt;span style=&quot;font-size: 11px; text-wrap-mode: nowrap; background-color: rgb(255, 255, 255);&quot;&gt;&lt;font style=&quot;vertical-align: inherit;&quot;&gt;&lt;font style=&quot;vertical-align: inherit;&quot;&gt;звук/видео&lt;/font&gt;&lt;/font&gt;&lt;/span&gt;&lt;/div&gt;" style="rounded=1;whiteSpace=wrap;html=1;" vertex="1" parent="1">
          <mxGeometry x="1105" y="585" width="140" height="50" as="geometry" />
        </mxCell>
        <mxCell id="8Cp3q9g_mXeA307Ml8ns-108" style="edgeStyle=orthogonalEdgeStyle;rounded=0;orthogonalLoop=1;jettySize=auto;html=1;exitX=0.5;exitY=0;exitDx=0;exitDy=0;entryX=0.75;entryY=0;entryDx=0;entryDy=0;" edge="1" parent="1" source="8Cp3q9g_mXeA307Ml8ns-102" target="8Cp3q9g_mXeA307Ml8ns-104">
          <mxGeometry relative="1" as="geometry" />
        </mxCell>
        <mxCell id="8Cp3q9g_mXeA307Ml8ns-102" value="&lt;span style=&quot;font-size: 11px; text-wrap-mode: nowrap; background-color: rgb(255, 255, 255);&quot;&gt;&lt;font style=&quot;vertical-align: inherit;&quot;&gt;&lt;font style=&quot;vertical-align: inherit;&quot;&gt;&lt;font style=&quot;vertical-align: inherit;&quot;&gt;&lt;font style=&quot;vertical-align: inherit;&quot;&gt;нажатие на кнопку&amp;nbsp;&lt;/font&gt;&lt;/font&gt;&lt;/font&gt;&lt;/font&gt;&lt;/span&gt;&lt;div&gt;&lt;span style=&quot;font-size: 11px; text-wrap-mode: nowrap; background-color: rgb(255, 255, 255);&quot;&gt;&lt;font style=&quot;vertical-align: inherit;&quot;&gt;&lt;font style=&quot;vertical-align: inherit;&quot;&gt;демонстрации экрана&lt;/font&gt;&lt;/font&gt;&lt;/span&gt;&lt;/div&gt;" style="rounded=1;whiteSpace=wrap;html=1;" vertex="1" parent="1">
          <mxGeometry x="1105" y="482" width="140" height="50" as="geometry" />
        </mxCell>
        <mxCell id="8Cp3q9g_mXeA307Ml8ns-109" style="edgeStyle=orthogonalEdgeStyle;rounded=0;orthogonalLoop=1;jettySize=auto;html=1;exitX=0.5;exitY=0;exitDx=0;exitDy=0;entryX=0.75;entryY=0;entryDx=0;entryDy=0;" edge="1" parent="1" source="8Cp3q9g_mXeA307Ml8ns-103" target="8Cp3q9g_mXeA307Ml8ns-104">
          <mxGeometry relative="1" as="geometry" />
        </mxCell>
        <mxCell id="8Cp3q9g_mXeA307Ml8ns-103" value="&lt;span style=&quot;font-size: 11px; text-wrap-mode: nowrap; background-color: rgb(255, 255, 255);&quot;&gt;&lt;font style=&quot;vertical-align: inherit;&quot;&gt;&lt;font style=&quot;vertical-align: inherit;&quot;&gt;&lt;font style=&quot;vertical-align: inherit;&quot;&gt;&lt;font style=&quot;vertical-align: inherit;&quot;&gt;нажатие на кнопку&amp;nbsp;&lt;/font&gt;&lt;/font&gt;&lt;/font&gt;&lt;/font&gt;&lt;/span&gt;&lt;div&gt;&lt;span style=&quot;font-size: 11px; text-wrap-mode: nowrap; background-color: rgb(255, 255, 255);&quot;&gt;&lt;font style=&quot;vertical-align: inherit;&quot;&gt;&lt;font style=&quot;vertical-align: inherit;&quot;&gt;записи экрана&lt;/font&gt;&lt;/font&gt;&lt;/span&gt;&lt;/div&gt;" style="rounded=1;whiteSpace=wrap;html=1;" vertex="1" parent="1">
          <mxGeometry x="1350" y="585" width="140" height="50" as="geometry" />
        </mxCell>
        <mxCell id="8Cp3q9g_mXeA307Ml8ns-104" value="&lt;span style=&quot;font-size: 11px; text-wrap-mode: nowrap; background-color: rgb(255, 255, 255);&quot;&gt;&lt;font style=&quot;vertical-align: inherit;&quot;&gt;&lt;font style=&quot;vertical-align: inherit;&quot;&gt;&lt;font style=&quot;vertical-align: inherit;&quot;&gt;&lt;font style=&quot;vertical-align: inherit;&quot;&gt;нажатие на кнопку&amp;nbsp;&lt;/font&gt;&lt;/font&gt;&lt;/font&gt;&lt;/font&gt;&lt;/span&gt;&lt;div&gt;&lt;span style=&quot;font-size: 11px; text-wrap-mode: nowrap; background-color: rgb(255, 255, 255);&quot;&gt;&lt;font style=&quot;vertical-align: inherit;&quot;&gt;&lt;font style=&quot;vertical-align: inherit;&quot;&gt;выхода из конференции&lt;/font&gt;&lt;/font&gt;&lt;/span&gt;&lt;/div&gt;" style="rounded=1;whiteSpace=wrap;html=1;" vertex="1" parent="1">
          <mxGeometry x="920" y="410" width="140" height="50" as="geometry" />
        </mxCell>
      </root>
    </mxGraphModel>
  </diagram>
</mxfile>
